HIERARCHY
ROOT Hips
{
	OFFSET 0.000000 0.000000 0.000000
	CHANNELS 6 Xposition Yposition Zposition Zrotation Yrotation Xrotation 
	JOINT LowerBack
	{
		OFFSET 0.000000 0.000000 0.000000
		CHANNELS 3 Zrotation Yrotation Xrotation
		JOINT Spine
		{
			OFFSET 0.028270 2.035590 -0.193380
			CHANNELS 3 Zrotation Yrotation Xrotation
			JOINT Spine1
			{
				OFFSET 0.056720 2.048850 -0.042750
				CHANNELS 3 Zrotation Yrotation Xrotation
				JOINT Neck
				{
					OFFSET 0.000000 0.000000 0.000000
					CHANNELS 3 Zrotation Yrotation Xrotation
					JOINT Neck1
					{
						OFFSET -0.054170 1.746240 0.172020
						CHANNELS 3 Zrotation Yrotation Xrotation
						JOINT Head
						{
							OFFSET 0.104070 1.761360 -0.123970
							CHANNELS 3 Zrotation Yrotation Xrotation
							End Site
							{
								OFFSET 0.000000 0.000000 0.000000
							}
						}
					}
				}
				JOINT LeftShoulder
				{
					OFFSET 0.000000 0.000000 0.000000
					CHANNELS 3 Zrotation Yrotation Xrotation
					JOINT LeftArm
					{
						OFFSET 3.362410 1.200890 -0.311210
						CHANNELS 3 Zrotation Yrotation Xrotation
						JOINT LeftForeArm
						{
							OFFSET 4.983000 -0.000000 -0.000000
							CHANNELS 3 Zrotation Yrotation Xrotation
							JOINT LeftHand
							{
								OFFSET 3.483560 -0.000000 -0.000000
								CHANNELS 3 Zrotation Yrotation Xrotation
								JOINT LeftFingerBase
								{
									OFFSET 0.000000 0.000000 0.000000
									CHANNELS 3 Zrotation Yrotation Xrotation
									JOINT LeftHandIndex1
									{
										OFFSET 0.715260 -0.000000 -0.000000
										CHANNELS 3 Zrotation Yrotation Xrotation
										End Site
										{
											OFFSET 0.000000 0.000000 0.000000
										}
									}
								}
								JOINT LThumb
								{
									OFFSET 0.000000 0.000000 0.000000
									CHANNELS 3 Zrotation Yrotation Xrotation
									End Site
									{
										OFFSET 0.000000 0.000000 0.000000
									}
								}
							}
						}
					}
				}
				JOINT RightShoulder
				{
					OFFSET 0.000000 0.000000 0.000000
					CHANNELS 3 Zrotation Yrotation Xrotation
					JOINT RightArm
					{
						OFFSET -3.136600 1.374050 -0.404650
						CHANNELS 3 Zrotation Yrotation Xrotation
						JOINT RightForeArm
						{
							OFFSET -5.241900 -0.000000 -0.000000
							CHANNELS 3 Zrotation Yrotation Xrotation
							JOINT RightHand
							{
								OFFSET -3.444170 -0.000000 -0.000000
								CHANNELS 3 Zrotation Yrotation Xrotation
								JOINT RightFingerBase
								{
									OFFSET 0.000000 0.000000 0.000000
									CHANNELS 3 Zrotation Yrotation Xrotation
									JOINT RightHandIndex1
									{
										OFFSET -0.622530 -0.000000 -0.000000
										CHANNELS 3 Zrotation Yrotation Xrotation
										End Site
										{
											OFFSET 0.000000 0.000000 0.000000
										}
									}
								}
								JOINT RThumb
								{
									OFFSET 0.000000 0.000000 0.000000
									CHANNELS 3 Zrotation Yrotation Xrotation
									End Site
									{
										OFFSET 0.000000 0.000000 0.000000
									}
								}
							}
						}
					}
				}
			}
		}
	}
}
}
MOTION
Frames: 7
Frame Time: 0.008333
1.042183 16.731370 -1.541460 6.614660 81.594042 5.473254 -0.938057 -1.204039 0.772927 -0.936454 -1.162404 -2.411227 -6.388523 -1.144216 1.760034 9.095293 -10.715439 -9.409632 -3.009764 -0.206789 -0.507692 0.000000 0.000000 0.000000 -1.957680 16.444645 1.312644 -58.572157 -6.814748 4.646341 -3.867853 -26.772743 -0.005488 1.784344 2.328708 0.039566 -0.150058 0.029608 0.000000 0.000000 0.000000 0.000000 0.000000 0.000000 0.000000 14.380744 -6.601995 0.234151 67.563618 -2.393470 -8.060188 3.588375 20.940999 0.009742 -0.939502 5.042221 -0.046360 0.111447 -0.069172 -0.000000 0.000000 0.000000 0.000000 0.000000 0.000000 0.000000 
1.292663 16.746233 -1.520461 5.572635 82.072459 4.532719 -0.462521 -1.451050 0.620550 -0.848331 -1.447166 -2.414967 -6.465773 -1.421046 1.804306 9.223113 -11.134317 -9.451950 -3.054588 -0.210010 -0.514654 0.000000 0.000000 0.000000 -1.533941 15.869117 1.359180 -56.747435 -7.455167 4.323623 -3.821042 -28.627482 -0.005863 1.560837 2.419724 0.036535 -0.155076 0.036129 0.000000 0.000000 0.000000 0.000000 0.000000 0.000000 0.000000 14.828552 -7.251087 0.224605 68.620709 -3.493563 -9.039353 3.669954 19.606747 0.009761 -0.798153 4.978590 -0.039492 0.110990 -0.063688 -0.000000 0.000000 0.000000 0.000000 0.000000 0.000000 0.000000 
1.544690 16.759236 -1.497781 4.377053 82.562638 3.450917 0.006634 -1.696662 0.447127 -0.759164 -1.730834 -2.420930 -6.532985 -1.696620 1.854906 9.350457 -11.597783 -9.514029 -3.089846 -0.212303 -0.526368 0.000000 0.000000 0.000000 -1.096373 15.306533 1.409249 -54.876312 -8.033415 3.993118 -3.754260 -30.389914 -0.006121 1.400802 2.471617 0.033998 -0.159218 0.042926 0.000000 0.000000 0.000000 0.000000 0.000000 0.000000 0.000000 15.254613 -7.940341 0.218514 69.619841 -4.636737 -9.889173 3.745237 18.423120 0.009798 -0.620119 4.931694 -0.031321 0.110220 -0.058568 -0.000000 0.000000 0.000000 0.000000 0.000000 0.000000 0.000000 
1.798007 16.770128 -1.473121 3.005229 83.064089 2.202632 0.462426 -1.940923 0.257954 -0.669759 -2.012871 -2.428514 -6.588729 -1.970523 1.911235 9.477542 -12.103227 -9.596337 -3.114216 -0.213532 -0.543070 0.000000 0.000000 0.000000 -0.639314 14.762200 1.461597 -52.971691 -8.556520 3.642773 -3.669061 -32.042780 -0.006282 1.310607 2.483410 0.032255 -0.162516 0.050223 0.000000 0.000000 0.000000 0.000000 0.000000 0.000000 0.000000 15.653603 -8.666531 0.215914 70.573217 -5.827439 -10.580006 3.814419 17.409353 0.009826 -0.405761 4.889554 -0.021749 0.109175 -0.053689 -0.000000 0.000000 0.000000 0.000000 0.000000 0.000000 0.000000 
2.052466 16.778864 -1.446203 1.423777 83.579205 0.753628 0.898725 -2.184968 0.056115 -0.580792 -2.293921 -2.437461 -6.632102 -2.243552 1.973074 9.605225 -12.647652 -9.698317 -3.127004 -0.213623 -0.564703 0.000000 0.000000 0.000000 -0.160186 14.240968 1.514790 -51.044138 -9.028942 3.265353 -3.567570 -33.575304 -0.006385 1.290100 2.459874 0.031505 -0.165025 0.058188 0.000000 0.000000 0.000000 0.000000 0.000000 0.000000 0.000000 16.023639 -9.427150 0.216567 71.489980 -7.067035 -11.092937 3.878058 16.576229 0.009820 -0.156244 4.840785 -0.010873 0.107886 -0.048937 -0.000000 0.000000 0.000000 0.000000 0.000000 0.000000 0.000000 
2.308014 16.785560 -1.416809 -0.415522 84.112590 -0.944195 1.310164 -2.430595 -0.157313 -0.492846 -2.575377 -2.447853 -6.662671 -2.517264 2.040380 9.734900 -13.227381 -9.818179 -3.128187 -0.212571 -0.590853 0.000000 0.000000 0.000000 0.339748 13.746307 1.567312 -49.102543 -9.452997 2.858013 -3.452275 -34.982610 -0.006479 1.333914 2.410004 0.031747 -0.166809 0.066917 0.000000 0.000000 0.000000 0.000000 0.000000 0.000000 0.000000 16.366030 -10.219865 0.219942 72.374732 -8.354315 -11.421956 3.937012 15.924535 0.009760 0.127160 4.776584 0.001304 0.106380 -0.044215 -0.000000 0.000000 0.000000 0.000000 0.000000 0.000000 0.000000 
2.564680 16.790496 -1.384822 -2.591193 84.670570 -2.969387 1.691703 -2.680084 -0.382918 -0.406517 -2.859177 -2.460019 -6.680488 -2.793746 2.113253 9.868261 -13.838481 -9.953013 -3.118370 -0.210435 -0.620793 0.000000 0.000000 0.000000 0.856084 13.279930 1.617717 -47.153163 -9.828815 2.422540 -3.325815 -36.265359 -0.006622 1.432283 2.345701 0.032781 -0.167939 0.076410 0.000000 0.000000 0.000000 0.000000 0.000000 0.000000 0.000000 16.684889 -11.042720 0.225130 73.228521 -9.684799 -11.575180 3.992290 15.444997 0.009627 0.444259 4.690425 0.014382 0.104665 -0.039449 -0.000000 0.000000 0.000000 0.000000 0.000000 0.000000 0.000000 
